<?xml version='1.0' encoding='utf-8'?>
<svg xmlns="http://www.w3.org/2000/svg" version="1.1" width="829px" height="592px" viewBox="145 805 829 592"> <g id="layer1"> <g style="fill:rgb(118,184,188); fill-opacity:1.0; stroke-linejoin: miter"> <path d="M136.52711,799.6886C136.26714,799.6886,136.01772,799.79175,135.83391,799.9757C135.65007,800.15955,135.54683,800.40894,135.54683,800.6688L135.5475,1405.3605C135.5475,1405.902,135.9864,1406.3406,136.52776,1406.3406L982.4641,1406.3424C982.7241,1406.3424,982.9734,1406.239,983.1572,1406.0554C983.3412,1405.8716,983.44434,1405.6223,983.44434,1405.362L983.44415,800.6695C983.44415,800.12823,983.00555,799.6894,982.46405,799.6894L136.52711,799.6886 Z"/> </g> <g style="fill:rgb(0,0,0); fill-opacity:0.40392157; stroke-linejoin: miter"> <path d="M911.8405,1334.0596L908.58356,1334.5847Q885.4267,1336.1716,773.072,1337.1224Q659.9395,1338.0732,506.62964,1337.8934Q360.31525,1337.6421,272.59183,1336.4238Q244.48438,1336.0295,226.28767,1335.5653L210.99399,1335.0879Q198.39072,1334.5947,198.249,1334.0592Q202.07523,1332.4147,302.75195,1331.3234Q403.42892,1330.2312,555.0444,1330.1898Q706.6603,1330.2314,807.33716,1331.3235Q908.01447,1332.4153,911.8405,1334.0596"/> </g> <g> <g style="fill:rgb(90,228,121); fill-opacity:1.0; stroke-linejoin: miter"> <path d="M456.59506,1292.0894L452.77707,1292.3257Q445.28622,1293.0745,438.9573,1296.0322Q435.79282,1297.511,432.9189,1299.5422Q431.2676,1300.2454,425.01605,1306.813Q415.78357,1317.4121,415.4002,1333.9229L497.7537,1333.9226Q497.621,1325.1931,495.1943,1318.8899Q493.99142,1315.5801,492.23642,1312.561Q487.36557,1305.2671,485.72867,1304.157Q479.01572,1298.1814,477.32462,1297.6492Q474.3054,1295.894,470.9957,1294.6912Q464.3763,1292.2859,456.59506,1292.0894 Z"/> </g> <g style="fill:rgb(90,228,121); fill-opacity:1.0; stroke-linejoin: miter"> <path d="M491.44485,1305.0105L488.80606,1305.1736Q483.62894,1305.6912,479.2548,1307.7354Q477.06772,1308.7573,475.08145,1310.1611Q473.94022,1310.6472,469.61954,1315.1863Q463.23874,1322.5117,462.9738,1333.9229L519.8909,1333.9226Q519.79926,1327.8894,518.1221,1323.5332Q517.2907,1321.2456,516.0778,1319.1589Q512.71136,1314.1179,511.58005,1313.3506Q506.94052,1309.2207,505.77176,1308.8528Q503.68503,1307.6399,501.3976,1306.8086Q496.82272,1305.1462,491.44485,1305.0105 Z"/> </g> </g> <g> <g style="fill:rgb(90,228,121); fill-opacity:1.0; stroke-linejoin: miter"> <path d="M738.6592,1292.4003L734.8412,1292.6366Q727.35034,1293.3854,721.0214,1296.3431Q717.85693,1297.8219,714.98303,1299.8531Q713.3317,1300.5563,707.08014,1307.1239Q697.84766,1317.723,697.4643,1334.2338L779.8178,1334.2335Q779.6851,1325.504,777.2584,1319.2008Q776.05554,1315.891,774.30054,1312.872Q769.4297,1305.578,767.7928,1304.4679Q761.07983,1298.4923,759.38873,1297.9601Q756.3695,1296.205,753.0598,1295.0021Q746.4404,1292.5968,738.6592,1292.4003 Z"/> </g> <g style="fill:rgb(90,228,121); fill-opacity:1.0; stroke-linejoin: miter"> <path d="M773.509,1305.3214L770.8702,1305.4845Q765.69305,1306.0021,761.3189,1308.0463Q759.13184,1309.0682,757.14557,1310.472Q756.00433,1310.9581,751.68365,1315.4972Q745.30286,1322.8226,745.0379,1334.2338L801.955,1334.2335Q801.86334,1328.2003,800.18616,1323.8441Q799.3548,1321.5565,798.1419,1319.4698Q794.77545,1314.4288,793.64417,1313.6615Q789.00464,1309.5316,787.8359,1309.1637Q785.74915,1307.9508,783.46173,1307.1195Q778.88684,1305.4572,773.509,1305.3214 Z"/> </g> </g> <g> <g style="fill:rgb(0,0,0); fill-opacity:1.0; stroke-linejoin: miter"> <path d="M270.5186,1298.0236L272.59903,1298.0237L274.67947,1298.0237Q274.67947,1315.2825,274.67947,1332.5414Q272.59903,1332.5415,270.5186,1332.5416Q270.5186,1315.2826,270.5186,1298.0236"/> </g> <g style="fill:rgb(0,0,0); fill-opacity:1.0; stroke-linejoin: miter"> <path d="M354.7208,1298.9546L358.88168,1298.9548L358.88168,1333.4724L354.7208,1333.4727L354.7208,1298.9546"/> </g> </g> <g style="fill:rgb(255,203,40); fill-opacity:1.0; stroke-linejoin: miter"> <path d="M600.8108,1103.7706L502.6669,1208.4955L698.9922,1208.4614L600.8108,1103.7706 Z M600.82623,1188.6053C589.8509,1188.6074,580.9523,1179.7118,580.95013,1168.737C580.94806,1157.7612,589.8435,1148.8627,600.8191,1148.8605C611.7946,1148.8589,620.693,1157.7548,620.6952,1168.7296C620.69684,1179.7046,611.80176,1188.6036,600.82623,1188.6053 Z"/> </g> <g style="fill:rgb(255,203,40); fill-opacity:1.0; stroke-linejoin: miter"> <path d="M501.49832,1209.7433L501.46793,1209.7753L501.48666,1314.4825L607.4733,1314.464L607.4579,1228.349L670.38763,1228.3383L670.403,1314.4519L700.21185,1314.4473L700.19403,1215.0844L501.49918,1215.1206L501.49832,1209.7433 Z M526.3238,1294.6058L526.31647,1254.8611L526.3155,1248.2367L526.3129,1234.9888L526.3117,1228.3643L532.93585,1228.3636L579.305,1228.3549L585.92896,1228.354L585.93005,1234.978L585.9325,1248.2257L585.93384,1254.8502L585.94073,1294.595L585.9421,1301.2191L579.3176,1301.221L532.94904,1301.2288L526.3247,1301.2303L526.3238,1294.6058 Z"/> </g> <g style="fill:rgb(88,95,113); fill-opacity:1.0; stroke-linejoin: miter"> <path d="M698.99274,1208.4606L502.6669,1208.4963L501.49832,1209.7433L501.49918,1215.1196L700.19366,1215.085L700.2238,1215.0844L700.223,1209.7723 Z"/> </g> <g style="fill:rgb(112,97,78); fill-opacity:1.0; stroke-linejoin: miter"> <path d="M724.5194,1206.6283L693.59235,1173.6525L693.5856,1135.5958L673.71313,1135.6L673.716,1152.4578L600.80585,1074.7153L477.13968,1206.6726L491.64114,1220.2611L501.46744,1209.7753L501.49832,1209.7433L502.6669,1208.4955L600.8108,1103.7706L698.99274,1208.4606L700.223,1209.7723L710.0233,1220.2223 Z"/> </g> <g style="fill:rgb(105,90,105); fill-opacity:1.0; stroke-linejoin: miter"> <path d="M600.8191,1148.8605C589.8435,1148.8627,580.94806,1157.762,580.95013,1168.737C580.9523,1179.7124,589.8509,1188.6074,600.82623,1188.6053C611.80176,1188.6036,620.69684,1179.7046,620.6952,1168.7296C620.693,1157.7543,611.7946,1148.8589,600.8191,1148.8605 Z M600.8249,1181.9813C593.50775,1181.9827,587.57556,1176.0526,587.5742,1168.7358C587.5736,1163.9515,590.1089,1159.7605,593.91003,1157.4305C595.7324,1156.3129,597.8461,1155.6249,600.11127,1155.5044C600.34595,1155.4917,600.5825,1155.4849,600.8209,1155.4849C608.1378,1155.4833,614.0702,1161.414,614.0715,1168.7307C614.0729,1176.0481,608.14185,1181.9802,600.8249,1181.9813 Z"/> </g> <g style="fill:rgb(149,255,255); fill-opacity:1.0; stroke-linejoin: miter"> <path d="M600.82025,1155.4849C608.13654,1155.4833,614.0694,1161.4144,614.071,1168.7307C614.0694,1161.414,608.13715,1155.4833,600.82025,1155.4849 Z"/> </g> <g style="fill:rgb(149,255,255); fill-opacity:1.0; stroke-linejoin: miter"> <path d="M600.11053,1155.5042C600.34546,1155.4915,600.5825,1155.4846,600.82025,1155.4846C600.5825,1155.4849,600.34595,1155.4922,600.11053,1155.5042 Z"/> </g> <g style="fill:rgb(178,215,242); fill-opacity:1.0; stroke-linejoin: miter"> <path d="M591.45386,1159.3682C592.1911,1158.6293,593.0159,1157.9786,593.91003,1157.4305C590.10944,1159.7605,587.5736,1163.9515,587.5742,1168.7358C587.5759,1176.0526,593.5082,1181.9827,600.8249,1181.9813C608.14185,1181.9802,614.0723,1176.0481,614.071,1168.7307C614.07184,1172.3889,612.5892,1175.7017,610.19147,1178.0985L591.45386,1159.3682 Z"/> </g> <g style="fill:rgb(139,181,211); fill-opacity:1.0; stroke-linejoin: miter"> <path d="M600.82025,1155.4849C600.5825,1155.4849,600.34595,1155.4922,600.11053,1155.5044C597.84546,1155.6249,595.7324,1156.3129,593.9094,1157.4305C593.01526,1157.9786,592.1911,1158.6293,591.45337,1159.3682L610.1905,1178.0985C612.5887,1175.7017,614.071,1172.3889,614.0704,1168.7307C614.0694,1161.4144,608.13654,1155.4833,600.82025,1155.4849 Z"/> </g> <g style="fill:rgb(178,215,242); fill-opacity:1.0; stroke-linejoin: miter"> <path d="M572.6925,1294.5973L532.9404,1254.8593L532.94794,1294.6044L579.31665,1294.5968 Z"/> </g> <g style="fill:rgb(139,181,211); fill-opacity:1.0; stroke-linejoin: miter"> <path d="M532.93695,1234.9868L579.30597,1234.9781L579.3083,1248.2267L532.9396,1248.2351L532.93695,1234.9868 Z M532.93695,1234.9868L579.30597,1234.9781L579.3083,1248.2267L532.9396,1248.2351L532.93695,1234.9868 Z M532.93695,1234.9868L579.30597,1234.9781L579.3083,1248.2267L532.9396,1248.2351L532.93695,1234.9868 Z M532.93695,1234.9868L579.30597,1234.9781L579.3083,1248.2267L532.9396,1248.2351L532.93695,1234.9868 Z"/> </g> <g style="fill:rgb(88,95,113); fill-opacity:1.0; stroke-linejoin: miter"> <path d="M579.3176,1301.2206L585.9421,1301.2195L585.94073,1294.595L585.93384,1254.8502L585.9325,1248.2257L585.93005,1234.978L585.92896,1228.3535L579.305,1228.3552L532.93585,1228.363L526.3117,1228.365L526.3129,1234.9888L526.3155,1248.2367L526.31647,1254.8611L526.3238,1294.6058L526.3247,1301.23L532.94904,1301.2295L579.3176,1301.2206 Z M532.93695,1234.9868L579.30597,1234.979L579.3083,1248.2267L532.9396,1248.2355L532.93695,1234.9868 Z M532.9404,1254.8593L579.3097,1254.8514L579.31665,1294.5955L532.94794,1294.6044L532.9404,1254.8593 Z"/> </g> <g style="fill:rgb(139,181,211); fill-opacity:1.0; stroke-linejoin: miter"> <path d="M579.31665,1294.5961L579.3097,1254.8511L532.9404,1254.8599L572.6925,1294.5973 Z"/> </g> <g style="fill:rgb(173,158,127); fill-opacity:1.0; stroke-linejoin: miter"> <path d="M670.40607,1334.3245L670.40247,1314.4519L670.3869,1228.3379L607.45734,1228.3496L607.4727,1314.4634L607.4765,1334.336 Z"/> </g> <g style="fill:rgb(112,97,78); fill-opacity:1.0; stroke-linejoin: miter"> <path d="M607.4727,1314.4634L501.48624,1314.4829L501.48996,1334.355L607.4765,1334.3365L607.4765,1334.336 Z"/> </g> <g style="fill:rgb(112,97,78); fill-opacity:1.0; stroke-linejoin: miter"> <path d="M670.40607,1334.3245L670.40607,1334.3252L700.21466,1334.3196L700.2113,1314.4468L670.40247,1314.4529 Z"/> </g> <g style="fill:rgb(255,255,255); fill-opacity:0.7058824; stroke-linejoin: miter"> <path d="M334.00226,1003.2628C334.38257,1001.8727,334.56757,1000.4376,334.55316,998.9828C334.4649,990.38196,327.396,983.45654,318.79486,983.54456C315.21667,983.58057,311.73395,984.8589,308.9883,987.1437C306.54642,989.17505,304.7746,991.92065,303.92743,994.9564C298.1664,994.4773,292.9999,998.18286,291.4286,1003.52966C290.5551,1003.3402,289.66367,1003.24915,288.7659,1003.25854C282.14655,1003.3262,276.81583,1008.7279,276.88327,1015.3473C276.95117,1021.96716,282.39117,1027.2583,289.01086,1027.1906L330.92267,1026.7623C337.54236,1026.6943,342.87268,1021.2927,342.80493,1014.6731C342.74957,1009.2573,339.11774,1004.666,334.00226,1003.2628 Z"/> </g> <g style="fill:rgb(255,255,255); fill-opacity:0.7058824; stroke-linejoin: miter"> <path d="M832.01556,989.7612C832.34955,988.5409,832.51227,987.28143,832.4993,986.00446C832.4217,978.4554,826.21747,972.3765,818.6679,972.4537C815.5273,972.48553,812.4705,973.6077,810.0607,975.61285C807.91705,977.3958,806.3622,979.8056,805.6186,982.4703C800.562,982.04987,796.0272,985.3024,794.64813,989.99524C793.88104,989.829,793.0989,989.7489,792.311,989.7572C786.50085,989.8165,781.8219,994.55786,781.8812,1000.36804C781.9407,1006.1781,786.7156,1010.8224,792.526,1010.7632L829.3126,1010.3873C835.123,1010.3279,839.8017,1005.5864,839.7421,999.7761C839.69366,995.0226,836.5059,990.9929,832.01556,989.7612 Z"/> </g> <g style="fill:rgb(228,173,143); fill-opacity:1.0; stroke-linejoin: miter"> <path d="M657.17523,984.03516L619.5636,1022.11975L574.52594,1040.6782L519.6979,1008.3889C520.81433,984.5028,522.0691,969.4397,522.9434,963.1205C524.14343,954.44714,526.06903,948.5419,529.1867,945.4172C530.0544,944.5475,531.53467,943.62573,533.6823,942.7055L609.3217,933.50653L657.17523,984.03516 Z"/> </g> <g style="fill:rgb(244,198,172); fill-opacity:1.0; stroke-linejoin: miter"> <path d="M576.2687,917.5903C577.9841,916.86774,579.8554,916.68475,581.6808,916.42255C584.86755,915.9913,588.16016,916.11725,591.2399,917.0899C595.20087,918.3548,599.38043,918.5278,603.4578,919.1818C607.9021,919.9804,612.3479,920.7785,616.80695,921.4937C622.0251,922.23773,627.1775,923.3619,632.34406,924.38873C636.34784,924.9482,640.3554,923.99176,644.23083,923.0716C646.08,922.61346,647.7575,921.6895,649.38776,920.7286C649.7931,921.4722,649.91376,922.321,650.1658,923.1202C650.5433,924.377,650.8188,925.6656,651.2613,926.903C652.4673,929.6729,653.723,932.42377,654.7514,935.2674C655.5635,937.4323,656.4856,939.5601,657.0692,941.8044C657.9689,945.1442,659.3105,948.3376,660.4152,951.60956C662.5823,959.5131,664.73254,967.4211,666.8997,975.325C666.9529,975.6458,667.16046,975.9731,667.08203,976.3016C666.0252,976.9239,665.13293,977.78394,664.4472,978.7988C663.6243,980.03845,662.4371,980.95544,661.42035,982.02136C660.1891,983.282,658.88165,984.46716,657.49915,985.5608C656.60693,986.27014,655.8978,987.3673,654.7339,987.629C653.8616,987.0333,653.1622,986.21875,652.3668,985.53C649.94855,983.2711,647.5629,980.9834,645.18024,978.68884C644.1039,977.68646,643.0882,976.61005,641.91174,975.7182C639.15753,973.5908,635.9783,972.13666,632.9515,970.4565C627.87964,967.5662,623.00464,964.3503,618.0908,961.20624C611.9639,957.30707,605.72833,953.58356,599.51483,949.8239C596.7553,948.18195,594.0808,946.403,591.28546,944.8254C588.0786,943.01776,584.71857,941.3774,581.10516,940.58075C578.84174,940.091,576.46796,939.97174,574.1982,940.4788C571.89307,941.023,569.64716,941.80133,567.4781,942.7452C559.77026,946.0861,553.1901,951.45917,545.6948,955.19965C542.8592,956.63727,539.93243,957.8907,536.9651,959.0258C536.0929,959.2745,535.1668,959.1075,534.291,958.96564C533.425,958.7774,532.4689,958.6187,531.82513,957.9537C531.30066,957.45966,530.7565,956.97614,530.33606,956.38763C529.8164,955.65924,529.80206,954.7298,529.7302,953.87494C529.7025,953.32806,529.6034,952.7371,529.8908,952.2387C530.36395,951.3516,531.09534,950.6391,531.83,949.967C533.1387,948.8107,534.56177,947.7934,536.00336,946.8105C537.30005,945.91376,538.66736,945.08966,539.7631,943.93805C543.69885,939.8498,545.1122,934.013,549.04785,929.9233C550.4868,928.46857,552.3937,927.5971,554.3187,926.9869C558.9338,925.50616,563.5827,924.06085,567.9695,921.9744C570.7792,920.59576,573.3645,918.78033,576.2687,917.5903 Z"/> </g> <g style="fill:rgb(244,198,172); fill-opacity:1.0; stroke-linejoin: miter"> <path d="M520.97235,942.9693C521.373,941.5169,521.4467,939.9826,521.8952,938.5433C524.13745,939.1303,526.46326,939.2756,528.7659,939.43C532.8211,939.6995,536.89606,939.46246,540.91315,938.8743C540.1962,940.21234,539.27985,941.4454,538.22723,942.5361C537.2653,943.53986,536.05835,944.24335,534.92957,945.0329C533.06995,946.3151,531.2009,947.6165,529.6081,949.2282C528.5994,950.2847,527.5536,951.56976,527.62585,953.11786C527.70496,954.5153,527.6969,956.00775,528.4257,957.25433C528.9914,958.1812,529.8074,958.91644,530.5996,959.64594C531.49493,960.4927,532.7517,960.75464,533.9197,961.0006C535.23,961.2079,536.64105,961.4409,537.90045,960.88904C541.7753,959.38715,545.58813,957.70465,549.21954,955.6755C556.1031,951.8708,562.3899,946.9422,569.7554,944.0396C570.56195,943.767,571.3426,943.32635,572.2169,943.3227C574.299,943.23676,576.4603,942.6889,578.49066,943.4139C582.4968,944.59576,586.47296,946.05646,589.95435,948.4086C595.9555,952.4859,602.50726,955.63715,608.887,959.0612C614.2361,961.9086,619.3133,965.2237,624.47205,968.39276C627.89404,970.5108,631.3349,972.59906,634.83716,974.58496C637.67914,976.14026,640.4258,977.87537,643.0295,979.81177C645.23975,981.3915,647.04474,983.4424,649.0492,985.2617C651.5394,987.4668,653.05554,990.5138,654.25543,993.56287C654.785,995.16187,654.8642,996.8651,654.91986,998.536C654.96173,1000.197,654.345,1001.77075,653.639,1003.2433C652.9248,1004.8722,651.89246,1006.3816,650.54364,1007.5515C650.0424,1007.9563,649.4296,1008.4419,648.7424,1008.24585C645.34863,1007.5979,642.0023,1006.64075,638.8284,1005.2693C633.32043,1002.61487,628.967,998.1886,623.8194,994.9668C620.5785,992.8862,617.17053,991.0841,613.7494,989.3229C612.93365,988.9363,612.17017,988.43066,611.3163,988.1354C611.06824,988.68274,610.78033,989.2101,610.5012,989.74146C609.8706,989.5602,609.0751,990.2363,609.396,990.87036C610.15137,991.422,610.9768,991.87085,611.7577,992.38916C612.4324,992.7634,612.9452,993.3766,613.6814,993.64856C615.65784,994.87476,617.6269,996.1271,619.7289,997.1333C620.4386,997.4586,621.1336,997.87244,621.93005,997.9385C623.8451,999.6111,625.6572,1001.4083,627.6689,1002.9697C628.00757,1003.20337,628.2393,1003.54333,628.4345,1003.9C629.3869,1005.5731,630.7283,1006.9767,631.73834,1008.6116C632.4127,1009.69995,633.0004,1010.89526,633.1105,1012.1913C633.2365,1014.412,633.26184,1016.6914,632.5791,1018.8363C632.2088,1019.9425,631.8916,1021.10364,631.16205,1022.03955C630.19977,1023.30347,628.9031,1024.2731,627.53546,1025.0614C627.1955,1025.2474,626.85815,1025.462,626.4741,1025.5366C623.29456,1025.8577,620.0178,1025.406,617.0891,1024.1069C613.7342,1022.6593,610.8937,1020.29736,608.1798,1017.8989C603.86664,1014.114,599.7018,1010.01245,594.5619,1007.3434C594.23883,1007.95483,593.9107,1008.56335,593.6242,1009.1935C596.70776,1010.78,599.42236,1012.9734,602.0385,1015.2273C604.50555,1017.36914,606.8923,1019.6041,609.41724,1021.6791C611.8508,1023.6721,614.52655,1025.4475,617.513,1026.4869C617.64496,1027.2864,617.8366,1028.1322,617.68134,1028.9358C617.15405,1029.939,617.0065,1031.0687,616.70776,1032.148C616.42267,1033.003,615.75055,1033.6404,615.1815,1034.3102C614.7109,1034.8741,613.9835,1035.1042,613.3253,1035.3656C611.767,1035.8916,610.19366,1036.6517,608.50385,1036.465C607.5626,1036.3376,606.621,1036.2021,605.69073,1036.0149C603.812,1035.4254,602.02203,1034.585,600.1537,1033.9658C599.3517,1033.7307,598.70953,1033.1774,598.02783,1032.7241C595.247,1030.7566,592.67865,1028.5078,589.8565,1026.5997C588.29504,1025.5323,586.73804,1024.455,585.15424,1023.42065C583.19885,1022.3961,580.9071,1022.5266,578.7691,1022.3058C578.68445,1022.9894,578.5693,1023.67126,578.55444,1024.3625C580.3838,1024.5668,582.31165,1024.4387,584.0376,1025.1671C586.6081,1026.8916,589.2041,1028.588,591.6599,1030.4747C593.6875,1032.0526,595.68475,1033.6743,597.8257,1035.0996C597.934,1036.6207,597.4782,1038.1279,596.9867,1039.5508C596.35406,1040.044,595.5523,1040.276,594.8597,1040.6775C593.17957,1041.6589,591.15735,1041.9518,589.2407,1041.7646C587.9899,1041.6733,587.0293,1040.8042,585.9752,1040.2302C584.5936,1039.4443,583.29474,1038.5039,581.8539,1037.8301C580.93805,1037.4008,579.94916,1037.7952,579.1739,1038.3219C575.62744,1035.3822,573.213,1031.3805,570.02844,1028.0948C569.61755,1027.7222,569.68646,1027.0289,569.1161,1026.7937C567.8691,1026.6735,566.5998,1026.6263,565.3598,1026.8186C564.94586,1026.9402,564.5245,1026.8269,564.11145,1026.7828C563.36975,1026.687,562.62006,1026.6866,561.87463,1026.6592C562.35376,1025.6428,562.801,1024.5895,562.90125,1023.4601C563.06537,1021.6376,562.89844,1019.74854,562.18494,1018.04956C561.8795,1017.307,561.4814,1016.6089,561.07,1015.922C560.47565,1014.9552,559.9501,1013.90454,559.0258,1013.2029C557.53033,1012.026,555.73004,1011.03345,553.77423,1011.0681C552.51184,1011.05835,551.2137,1011.04675,550.0019,1011.454C549.3195,1011.66736,548.67896,1011.9851,548.03424,1012.28796C547.25305,1010.39233,546.32263,1008.52893,544.9872,1006.95593C543.58514,1005.2909,541.6687,1003.9669,539.48627,1003.62415C537.53357,1003.3473,535.5633,1003.85474,533.7449,1004.54126C532.5891,1005.02893,531.37427,1005.48413,530.4331,1006.3434C529.8199,1006.8933,529.41064,1007.6188,528.96716,1008.3015C525.288,1005.41846,521.4261,1002.5757,516.91077,1001.16626C516.1916,1000.8956,515.326,1000.907,514.78754,1000.2897C514.33563,1000.2439,514.01764,1000.6625,513.71155,1000.93335C513.17523,1001.4647,512.86487,1002.1703,512.64966,1002.88525C511.58105,1003.31335,510.52197,1003.7682,509.44928,1004.18335C509.3191,1003.80493,509.2508,1003.4105,509.27203,1003.01355C509.29132,1000.4075,509.28198,997.80286,509.29633,995.197C509.2929,994.5913,509.4511,994.0023,509.55,993.4093C510.9602,985.56616,512.3687,977.72144,513.7774,969.87854C514.1272,967.6267,514.8427,965.458,515.3873,963.2516C515.9705,961.26306,516.31256,959.2193,516.73846,957.19574C517.00354,955.7409,517.48254,954.3392,517.8708,952.91425C518.45874,950.9206,518.95935,948.90045,519.645,946.93805C520.08344,945.6142,520.53235,944.29315,520.9724,942.96906 Z"/> </g> <g style="fill:rgb(244,198,172); fill-opacity:1.0; stroke-linejoin: miter"> <path d="M515.61707,1010.68066C515.02026,1008.1035,515.17224,1005.4358,515.1282,1002.81213C519.84247,1003.9779,523.8252,1006.9131,527.5865,1009.85364C528.30945,1010.3627,528.9372,1011.01135,529.71735,1011.4369C530.2497,1010.3982,530.7333,1009.3242,531.4008,1008.3606C531.9269,1007.598,532.80096,1007.20715,533.61865,1006.83936C535.338,1006.0895,537.2051,1005.4702,539.10657,1005.65955C540.95447,1005.9375,542.52277,1007.155,543.64923,1008.5957C545.19824,1010.5585,546.11206,1012.92163,546.85834,1015.28406C548.46246,1014.4935,549.98047,1013.36694,551.8075,1013.1758C552.794,1013.10486,553.79755,1013.0735,554.77606,1013.23987C555.8552,1013.5403,556.8531,1014.1067,557.7203,1014.8124C558.4171,1015.34314,558.767,1016.1699,559.22864,1016.88855C559.97577,1018.09375,560.6461,1019.39526,560.79803,1020.8281C560.98,1022.2953,560.9584,1023.8612,560.2567,1025.2018C559.6426,1026.4523,558.88434,1027.6245,558.24915,1028.864C560.11206,1028.7963,561.98474,1028.6418,563.8456,1028.8284C565.81396,1029.04,567.62823,1029.8914,569.3696,1030.78C569.9096,1030.9015,570.1957,1031.3965,570.53613,1031.7856C572.7077,1034.3972,574.7194,1037.1769,577.2799,1039.435C574.4253,1041.1709,571.0971,1042.5671,567.6872,1042.1642C566.9357,1042.0774,566.16956,1042.0878,565.4277,1041.9517C564.32874,1041.1683,563.841,1039.8265,562.9123,1038.8763C561.9621,1037.9001,560.8296,1037.1232,559.6889,1036.3875C558.4059,1035.6155,557.0869,1034.8268,555.61035,1034.4949C553.5009,1034.1182,551.3481,1033.9061,549.3061,1033.2224C548.6924,1033.0011,548.0322,1032.7615,547.62744,1032.2196C546.80444,1031.1768,545.81323,1030.2668,545.09485,1029.1416C544.426,1028.1006,544.46,1026.8115,544.36993,1025.6246C544.3327,1024.5992,544.15076,1023.589,544.04126,1022.572C542.54,1023.28,541.45654,1024.6293,540.08997,1025.551C539.7227,1025.7756,539.3114,1026.0375,538.86035,1025.9377C537.7317,1025.7797,536.59686,1025.6322,535.5002,1025.3225C533.9492,1024.9077,532.5995,1024.005,531.1852,1023.28125C530.49725,1022.95154,529.9968,1022.3159,529.8502,1021.56604C529.22485,1018.6892,528.8657,1015.75305,528.7617,1012.80896C526.97485,1013.48083,525.259,1014.6482,523.27496,1014.50793C521.0513,1014.33826,518.94904,1013.5148,516.90076,1012.68555C516.0947,1012.3646,515.8368,1011.4354,515.61725,1010.68066 Z"/> </g> <g style="fill:rgb(244,198,172); fill-opacity:0.99607843; stroke-linejoin: miter"> <path d="M552.327,932.2503Q551.51105,932.4843,551.07916,932.72406Q549.93756,933.1762,542.5109,937.7093Q534.6608,941.5291,534.39136,941.94366Q534.4156,942.0257,535.39636,942.1037Q538.65344,942.259,539.52826,942.25946Q555.47754,942.0048,555.553,942.12506Q559.2164,941.8786,561.8671,940.8267 Z"/> </g> <g style="fill:rgb(244,198,172); fill-opacity:0.99607843; stroke-linejoin: miter"> <path d="M509.85852,1003.10913Q510.5832,1003.5209,511.20996,1003.7749Q515.63074,1005.30676,517.23755,1006.04675L520.49524,1007.5847Q521.31256,1007.9238,521.2498,1007.7665Q521.3983,1007.48035,521.4796,1005.6146Q521.53485,1005.1321,521.3865,1001.8994Q521.5789,998.063,521.66254,998.1019L521.6597,996.5597Q521.6349,992.78394,521.0682,991.80725 Z"/> </g> <g style="fill:rgb(255,255,255); fill-opacity:0.99607843; stroke-linejoin: miter"> <path d="M639.9307,912.5336L658.8675,905.2338L677.8042,897.934Q693.1458,937.73175,708.4875,977.52936Q689.5508,984.8296,670.6142,992.1293Q655.2724,952.3316,639.9307,912.5336"/> </g> <g style="fill:rgb(255,255,255); fill-opacity:0.99607843; stroke-linejoin: miter"> <path d="M529.1652,929.2078L509.65503,923.61957L490.1447,918.03107Q478.39978,959.0343,466.65466,1000.0377Q486.1648,1005.6261,505.67505,1011.2156Q517.4202,970.2117,529.1652,929.2078"/> </g> <g style="fill:rgb(26,26,26); fill-opacity:0.99607843; stroke-linejoin: miter"> <path d="M446.65805,1011.074L446.658,1011.0742L446.65793,1011.07446L446.65805,1011.074"/> </g> <g style="fill:rgb(0,0,0); fill-opacity:1.0; stroke-linejoin: miter"> <path d="M966.1429,799.6895L878.09796,827.6803L657.7275,897.7393Q658.85095,901.27325,659.9745,904.80707L659.97437,904.8083L659.9668,904.81Q672.92084,945.52997,685.86646,986.24976L685.86646,986.2511Q685.86255,986.25134,685.85864,986.2528Q687.1883,990.4076,688.50916,994.56226Q835.97076,947.68146,983.43243,900.8004L983.44415,800.6695C983.44415,800.12823,983.00555,799.6894,982.46405,799.6894L966.1429,799.69086L966.1429,799.6895 Z"/> </g> <g style="fill:rgb(0,0,0); fill-opacity:1.0; stroke-linejoin: miter"> <path d="M414.49194,993.3855L414.8545,993.3695L415.21698,993.3534Q415.21698,993.3534,415.21698,993.3533Q414.8545,993.3695,414.49194,993.38574Q414.49194,993.38574,414.49194,993.3855"/> </g> <g style="fill:rgb(255,255,255); fill-opacity:1.0; stroke-linejoin: miter"> <path d="M252.84976,1234.4753L376.55048,1234.4763L376.55048,1304.9933L252.84976,1304.9943L252.84976,1234.4753 Z"/> </g> <g style="fill:rgb(0,0,0); fill-opacity:1.0; stroke-linejoin: miter"> <path d="M242.31984,1237.3928L242.31985,1237.3928L242.31985,1237.393L242.31985,1237.3928L242.31984,1237.3928L242.31985,1237.3928L242.31985,1237.393Q242.31985,1237.3928,242.31984,1237.3928"/> </g> <g style="fill:rgb(0,0,0); fill-opacity:1.0; stroke-linejoin: miter"> <path d="M164.55786,998.65173L164.55786,998.6519L164.55788,998.6521L164.55786,998.6519L164.55786,998.65173L164.55786,998.6519L164.55788,998.6521Q164.55786,998.6519,164.55786,998.65173"/> </g> <g> <g style="fill:rgb(255,0,0); fill-opacity:1.0; stroke-linejoin: miter"> <path d="M350.41852,1261.2438Q353.04004,1261.2438,354.47305,1262.6069Q355.90616,1263.97,355.90616,1266.6265Q355.90616,1269.248,354.47302,1270.6809Q353.04,1272.1141,350.41852,1272.1141L346.81836,1272.114L346.81836,1261.2437 Z M305.53888,1260.7543Q306.8321,1260.7543,308.0904,1261.1038Q309.31378,1261.4185,310.29248,1262.1526Q311.27115,1262.8516,311.86533,1263.9701Q312.4595,1265.0536,312.4595,1266.5565Q312.4595,1268.0245,311.86533,1269.1781Q311.27112,1270.2966,310.29242,1271.0654Q309.31372,1271.8345,308.09036,1272.2539Q306.86707,1272.6385,305.5738,1272.6383Q304.24557,1272.6383,302.98724,1272.2887Q301.76392,1271.9393,300.78522,1271.2054Q299.80655,1270.4713,299.2123,1269.3529Q298.6181,1268.2343,298.6181,1266.6964Q298.6181,1265.1586,299.2123,1264.0399Q299.80655,1262.9215,300.78522,1262.1876Q301.72897,1261.4535,302.98724,1261.1036Q304.21063,1260.7543,305.53888,1260.7543 Z M322.87555,1257.6436L322.87555,1275.7493L336.2276,1275.7491L336.2276,1272.1141L326.6155,1272.1141L326.61554,1257.6437 Z M339.1986,1257.6437L340.80643,1261.2437L343.04346,1261.2439L343.04346,1275.7491L350.41852,1275.7491Q352.48074,1275.7494,354.1934,1275.0852Q355.8712,1274.456,357.0945,1273.2678Q358.28287,1272.0791,358.947,1270.3665Q359.5762,1268.6536,359.5762,1266.5564Q359.5762,1264.3895,358.91208,1262.7118Q358.24792,1261.069,357.02463,1259.9155Q355.83624,1258.7969,354.1235,1258.2029Q352.44583,1257.6437,350.41852,1257.6437 Z M281.1416,1257.0496Q279.6386,1257.0493,278.27542,1257.434Q276.91226,1257.8185,275.8986,1258.5524Q274.88498,1259.2513,274.25583,1260.2651Q273.66162,1261.2788,273.66162,1262.5022Q273.66162,1263.9702,274.2209,1265.0188Q274.7801,1266.0323,275.79373,1266.6964Q276.77243,1267.3256,278.13562,1267.6053Q279.49878,1267.8848,281.1416,1267.885Q283.97275,1267.8848,285.3709,1268.2693Q286.7341,1268.6538,286.7341,1269.8772Q286.7341,1271.3452,285.19614,1272.0791Q283.65817,1272.813,281.1416,1272.8132Q279.9182,1272.8132,279.04437,1272.4985Q278.17056,1272.2191,277.50644,1271.7648Q276.8773,1271.3102,276.38797,1270.786Q275.93356,1270.2616,275.51413,1269.8422L272.9276,1272.4639Q274.43057,1274.2462,276.5977,1275.295Q278.72983,1276.3087,281.1416,1276.3086Q283.06403,1276.3086,284.74173,1275.8889Q286.41953,1275.5046,287.67783,1274.7007Q288.90112,1273.9318,289.6002,1272.7084Q290.2993,1271.5199,290.2993,1269.8771Q290.2993,1268.7936,289.98468,1267.7799Q289.6701,1266.7662,288.72635,1265.9974Q287.78268,1265.2283,286.0001,1264.7739Q284.2524,1264.3196,281.38626,1264.3198Q280.05804,1264.3196,279.2541,1264.1797Q278.48514,1264.0402,278.0657,1263.7953Q277.68124,1263.5856,277.5414,1263.2362Q277.43655,1262.9215,277.43655,1262.5021Q277.43655,1262.1176,277.7861,1261.7333Q278.10068,1261.3837,278.62497,1261.1039Q279.14923,1260.8591,279.81335,1260.6846Q280.4425,1260.5447,281.10663,1260.5447Q282.6795,1260.5447,284.0776,1260.894Q285.4408,1261.2437,286.4894,1262.1174L288.90112,1259.3214Q286.90884,1257.958,285.02136,1257.5037Q283.1339,1257.0496,281.1416,1257.0496 Z M305.53888,1257.0494Q303.51154,1257.0494,301.58914,1257.6786Q299.66672,1258.3077,298.16373,1259.5311Q296.66077,1260.7544,295.75195,1262.5371Q294.84317,1264.3196,294.84317,1266.6265Q294.84317,1268.9333,295.75195,1270.751Q296.6258,1272.5337,298.12875,1273.7919Q299.59683,1275.0153,301.51923,1275.6793Q303.44165,1276.3085,305.5039,1276.3085Q307.56607,1276.3086,309.52344,1275.6443Q311.4459,1274.9805,312.94888,1273.722Q314.4169,1272.4637,315.32568,1270.6461Q316.23453,1268.8287,316.23453,1266.5216Q316.23453,1264.1798,315.32568,1262.3973Q314.41693,1260.6146,312.91394,1259.4261Q311.44592,1258.2378,309.48853,1257.6436Q307.5661,1257.0493,305.53888,1257.0494 Z"/> </g> </g> <g style="fill:rgb(90,228,121); fill-opacity:1.0; stroke-linejoin: miter"> <path d="M491.82788,959.54095L491.82788,959.54126L491.8279,959.54156L491.82788,959.54126L491.82788,959.54095L491.82788,959.54126L491.8279,959.54156Q491.82788,959.54126,491.82788,959.54095"/> </g> <g style="fill:rgb(0,0,0); fill-opacity:1.0; stroke-linejoin: miter"> <path d="M136.52711,799.6886C136.26714,799.6886,136.01772,799.79175,135.83391,799.9757C135.65007,800.15955,135.54683,800.40894,135.54683,800.6688L135.54694,889.79266L481.4121,1011.6763L515.17975,915.8537L185.53732,799.68884L136.52711,799.6886 Z"/> </g> </g> </svg>